<svg width="23" height="23" viewBox="0 0 23 23" fill="none" xmlns="http://www.w3.org/2000/svg">
<path d="M3.5272 3.77127C3.5272 2.94986 3.85365 2.16209 4.43473 1.58127C5.01581 1.00045 5.80392 0.674146 6.62569 0.674146C7.44747 0.674146 8.23558 1.00045 8.81666 1.58127C9.39774 2.16209 9.72419 2.94986 9.72419 3.77127C9.72419 4.59267 9.39774 5.38044 8.81666 5.96126C8.23558 6.54209 7.44747 6.86839 6.62569 6.86839C5.80392 6.86839 5.01581 6.54209 4.43473 5.96126C3.85365 5.38044 3.5272 4.59267 3.5272 3.77127ZM6.62569 2.22271C6.21481 2.22271 5.82075 2.38586 5.53021 2.67627C5.23967 2.96668 5.07645 3.36056 5.07645 3.77127C5.07645 4.18197 5.23967 4.57585 5.53021 4.86626C5.82075 5.15668 6.21481 5.31983 6.62569 5.31983C7.03658 5.31983 7.43064 5.15668 7.72118 4.86626C8.01172 4.57585 8.17494 4.18197 8.17494 3.77127C8.17494 3.36056 8.01172 2.96668 7.72118 2.67627C7.43064 2.38586 7.03658 2.22271 6.62569 2.22271ZM14.0295 6.22419C13.705 5.97672 13.4325 5.66758 13.2278 5.31453C13.0232 4.96148 12.8903 4.57149 12.8369 4.16695C12.7834 3.76242 12.8105 3.35132 12.9166 2.95728C13.0226 2.56324 13.2055 2.19403 13.4547 1.87086C13.7039 1.54768 14.0146 1.27692 14.3688 1.07413C14.723 0.871333 15.1139 0.740507 15.5188 0.689165C15.9238 0.637824 16.335 0.666978 16.7286 0.774953C17.1223 0.882929 17.4907 1.0676 17.8128 1.31835C18.4469 1.82535 18.8565 2.5609 18.9536 3.36674C19.0506 4.17257 18.8273 4.98428 18.3317 5.62721C17.8361 6.27014 17.1078 6.69291 16.3035 6.80456C15.4992 6.9162 14.6817 6.7078 14.0295 6.22419ZM15.9212 2.22271C15.5103 2.22271 15.1162 2.38586 14.8257 2.67627C14.5351 2.96668 14.3719 3.36056 14.3719 3.77127C14.3719 4.18197 14.5351 4.57585 14.8257 4.86626C15.1162 5.15668 15.5103 5.31983 15.9212 5.31983C16.3321 5.31983 16.7261 5.15668 17.0167 4.86626C17.3072 4.57585 17.4704 4.18197 17.4704 3.77127C17.4704 3.36056 17.3072 2.96668 17.0167 2.67627C16.7261 2.38586 16.3321 2.22271 15.9212 2.22271ZM2.75258 8.41695H6.88907C6.71865 8.90165 6.62569 9.42351 6.62569 9.96551H2.75258C2.54714 9.96551 2.35011 10.0471 2.20484 10.1923C2.05957 10.3375 1.97796 10.5344 1.97796 10.7398C1.97796 12.005 2.48146 12.9434 3.27622 13.5814C3.64185 13.8756 4.08028 14.1126 4.57604 14.286C4.21198 14.6728 3.93143 15.1303 3.75184 15.6301C3.23181 15.4213 2.74491 15.1381 2.3064 14.7893C1.14136 13.8524 0.428711 12.468 0.428711 10.7398C0.428711 10.1237 0.673546 9.53291 1.10936 9.09729C1.54517 8.66167 2.13625 8.41695 2.75258 8.41695ZM8.59014 8.41695C8.17925 9.1287 8.06806 9.97445 8.28103 10.7681C8.49399 11.5618 9.01367 12.2385 9.72573 12.6492C10.4378 13.0599 11.2839 13.171 12.078 12.9581C12.872 12.7453 13.5489 12.2258 13.9598 11.5141C14.3707 10.8023 14.4819 9.95657 14.2689 9.16288C14.056 8.36918 13.5363 7.69256 12.8242 7.28185C12.1122 6.87115 11.266 6.76001 10.472 6.97288C9.67795 7.18575 9.00102 7.7052 8.59014 8.41695ZM10.9264 8.45566C11.1534 8.40441 11.389 8.40477 11.6158 8.45672C11.8427 8.50867 12.0549 8.61088 12.237 8.75581C12.419 8.90074 12.5661 9.08468 12.6675 9.29406C12.7689 9.50344 12.8219 9.7329 12.8227 9.96551C12.8226 10.2569 12.7402 10.5423 12.5851 10.789C12.4299 11.0357 12.2083 11.2336 11.9457 11.36C11.6831 11.4865 11.3901 11.5363 11.1005 11.5037C10.8108 11.4712 10.5362 11.3577 10.3082 11.1761C10.0802 10.9946 9.90802 10.7524 9.81153 10.4775C9.71504 10.2026 9.6981 9.90598 9.76267 9.62185C9.82724 9.33772 9.9707 9.07756 10.1766 8.87127C10.3824 8.66498 10.6423 8.52093 10.9264 8.45566ZM19.2706 13.5814C18.905 13.8756 18.4666 14.1126 17.9708 14.286C18.3343 14.6729 18.6143 15.1305 18.7935 15.6301C19.3202 15.4149 19.8082 15.1346 20.2405 14.7893C21.4055 13.8524 22.1182 12.468 22.1182 10.7398C22.1182 10.1237 21.8733 9.53291 21.4375 9.09729C21.0017 8.66167 20.4106 8.41695 19.7943 8.41695H15.6578C15.8282 8.90165 15.9212 9.42351 15.9212 9.96551H19.7943C19.9997 9.96551 20.1968 10.0471 20.342 10.1923C20.4873 10.3375 20.5689 10.5344 20.5689 10.7398C20.5689 12.005 20.0654 12.9434 19.2706 13.5814ZM15.1465 14.6112C15.7629 14.6112 16.354 14.8559 16.7898 15.2915C17.2256 15.7272 17.4704 16.318 17.4704 16.934C17.4704 18.6622 16.7593 20.0466 15.5927 20.9835C14.4447 21.9049 12.9048 22.354 11.2734 22.354C9.64208 22.354 8.10213 21.9049 6.95413 20.9835C5.7891 20.0466 5.07645 18.6622 5.07645 16.934C5.07563 16.6288 5.13518 16.3263 5.25168 16.0442C5.36817 15.762 5.53932 15.5056 5.75527 15.2897C5.97122 15.0739 6.22773 14.9028 6.51005 14.7863C6.79236 14.6699 7.09491 14.6104 7.40032 14.6112H15.1465ZM15.1465 16.1598H7.40032C7.19487 16.1598 6.99785 16.2413 6.85258 16.3865C6.70731 16.5317 6.62569 16.7287 6.62569 16.934C6.62569 18.1992 7.1292 19.1376 7.92396 19.7756C8.73886 20.4291 9.9101 20.8054 11.2734 20.8054C12.6368 20.8054 13.808 20.4291 14.6229 19.7756C15.4177 19.1376 15.9212 18.1992 15.9212 16.934C15.9212 16.7287 15.8396 16.5317 15.6943 16.3865C15.549 16.2413 15.352 16.1598 15.1465 16.1598Z" fill="#606060"/>
</svg>
