<svg width="23" height="23" viewBox="0 0 23 23" fill="none" xmlns="http://www.w3.org/2000/svg">
<path d="M11.2734 22.3974C9.77324 22.3974 8.36343 22.1126 7.04399 21.5429C5.72455 20.9732 4.57682 20.2007 3.60079 19.2254C2.62477 18.2493 1.85226 17.1016 1.28327 15.7822C0.714289 14.4627 0.429434 13.0529 0.428711 11.5527C0.428711 10.0525 0.713566 8.64273 1.28327 7.32329C1.85298 6.00385 2.62549 4.85611 3.60079 3.88009C4.57682 2.90406 5.72455 2.13156 7.04399 1.56257C8.36343 0.993586 9.77324 0.708731 11.2734 0.708008C12.7736 0.708008 14.1834 0.992863 15.5029 1.56257C16.8223 2.13228 17.97 2.90479 18.9461 3.88009C19.9221 4.85611 20.695 6.00385 21.2647 7.32329C21.8344 8.64273 22.1189 10.0525 22.1181 11.5527C22.1181 13.0529 21.8333 14.4627 21.2636 15.7822C20.6939 17.1016 19.9214 18.2493 18.9461 19.2254C17.97 20.2014 16.8223 20.9743 15.5029 21.544C14.1834 22.1137 12.7736 22.3982 11.2734 22.3974ZM11.2734 20.2285C13.6954 20.2285 15.7469 19.388 17.4278 17.7071C19.1087 16.0262 19.9492 13.9747 19.9492 11.5527C19.9492 10.5767 19.7909 9.63683 19.4742 8.7331C19.1575 7.82937 18.7013 6.99794 18.1056 6.23881L5.95952 18.3849C6.71865 18.9814 7.55008 19.4379 8.4538 19.7546C9.35753 20.0713 10.2974 20.2292 11.2734 20.2285ZM4.44126 16.8666L16.5873 4.72055C15.8282 4.12409 14.9968 3.66789 14.0931 3.35195C13.1893 3.03601 12.2495 2.87767 11.2734 2.87695C8.85144 2.87695 6.79998 3.71742 5.11905 5.39835C3.43812 7.07928 2.59765 9.13074 2.59765 11.5527C2.59765 12.5288 2.75563 13.4686 3.07157 14.3724C3.38751 15.2761 3.84407 16.1075 4.44126 16.8666Z" fill="#606060"/>
</svg>
