<svg width="12" height="21" viewBox="0 0 12 21" fill="none" xmlns="http://www.w3.org/2000/svg">
<path d="M0.439184 1.20578C0.157977 1.48707 3.76653e-06 1.86853 3.74914e-06 2.26628C3.73176e-06 2.66403 0.157977 3.04549 0.439184 3.32678L7.86418 10.7518L0.439183 18.1768C0.165946 18.4597 0.0147545 18.8386 0.0181724 19.2319C0.0215894 19.6252 0.179343 20.0014 0.457455 20.2795C0.735567 20.5576 1.11179 20.7154 1.50508 20.7188C1.89838 20.7222 2.27728 20.571 2.56018 20.2978L11.0457 11.8123C11.3269 11.531 11.4849 11.1495 11.4849 10.7518C11.4849 10.354 11.3269 9.97257 11.0457 9.69128L2.56018 1.20578C2.27889 0.924574 1.89743 0.766601 1.49968 0.766601C1.10194 0.766601 0.720475 0.924574 0.439184 1.20578Z" fill="#211F1F"/>
</svg>
