<svg width="24" height="25" viewBox="0 0 24 25" fill="none" xmlns="http://www.w3.org/2000/svg">
<path d="M1 23.6523L22.6894 1.96289M7.67367 9.47077H5.17105C4.72855 9.47077 4.30419 9.64655 3.9913 9.95944C3.67841 10.2723 3.50263 10.6967 3.50263 11.1392V14.476C3.50263 14.9185 3.67841 15.3429 3.9913 15.6558C4.30419 15.9687 4.72855 16.1444 5.17105 16.1444H7.67367M7.67367 9.47077V16.1444M7.67367 9.47077L14.2639 4.78252C14.5056 4.61529 14.7872 4.51487 15.0802 4.49143C15.3732 4.46799 15.6671 4.52236 15.9323 4.64904C16.2075 4.78769 16.4389 4.99982 16.6008 5.26191C16.7628 5.52401 16.849 5.82583 16.85 6.13394V7.80236M7.67367 16.1444L8.15752 16.4948M11.2941 18.7472L14.1972 20.8327C14.4389 20.9999 14.7205 21.1004 15.0135 21.1238C15.3064 21.1472 15.6004 21.0929 15.8656 20.9662C16.1532 20.837 16.3984 20.6289 16.5726 20.3661C16.7468 20.1033 16.843 19.7965 16.85 19.4813V12.8076" stroke="#606060" stroke-width="2" stroke-linecap="round" stroke-linejoin="round"/>
</svg>
