<svg width="21" height="21" viewBox="0 0 21 21" fill="none" xmlns="http://www.w3.org/2000/svg">
<path d="M10.3697 0.844727C4.87811 0.844727 0.428711 5.29412 0.428711 10.7857C0.428711 16.2773 4.87811 20.7267 10.3697 20.7267C15.8613 20.7267 20.3107 16.2773 20.3107 10.7857C20.3107 5.29412 15.8613 0.844727 10.3697 0.844727ZM10.3697 18.8027C5.94837 18.8027 2.35277 15.2071 2.35277 10.7857C2.35277 6.36438 5.94837 2.76879 10.3697 2.76879C14.791 2.76879 18.3866 6.36438 18.3866 10.7857C18.3866 15.2071 14.791 18.8027 10.3697 18.8027ZM7.16293 10.1444C7.87243 10.1444 8.44564 9.57116 8.44564 8.86166C8.44564 8.15216 7.87243 7.57895 7.16293 7.57895C6.45343 7.57895 5.88022 8.15216 5.88022 8.86166C5.88022 9.57116 6.45343 10.1444 7.16293 10.1444ZM13.5765 7.57895C12.867 7.57895 12.2938 8.15216 12.2938 8.86166C12.2938 9.57116 12.867 10.1444 13.5765 10.1444C14.286 10.1444 14.8592 9.57116 14.8592 8.86166C14.8592 8.15216 14.286 7.57895 13.5765 7.57895ZM10.3697 12.7098C8.7583 12.7098 7.2431 13.4193 6.20892 14.6579C5.8682 15.0668 5.92432 15.672 6.33318 16.0128C6.74204 16.3495 7.34732 16.2974 7.68804 15.8885C8.35345 15.0908 9.33151 14.6298 10.3697 14.6298C11.4079 14.6298 12.386 15.0868 13.0514 15.8885C13.3761 16.2773 13.9773 16.3655 14.4062 16.0128C14.8151 15.672 14.8672 15.0668 14.5305 14.6579C13.4963 13.4193 11.9811 12.7098 10.3697 12.7098Z" fill="#606060"/>
</svg>
