<svg width="21" height="21" viewBox="0 0 21 21" fill="none" xmlns="http://www.w3.org/2000/svg">
<path fill-rule="evenodd" clip-rule="evenodd" d="M17.9881 13.861V13.878C16.0098 14.8976 13.9975 14.2278 10.9456 13.0495L10.7042 12.9561C8.42061 12.071 5.46955 10.9309 2.36654 11.6744V3.43797C4.3448 2.41833 6.35714 3.08818 9.40903 4.26643L9.65045 4.3599C11.9326 5.24359 14.8837 6.38503 17.9881 5.64012V13.861ZM10.1773 15.0308C7.57846 14.0281 4.98102 13.0255 2.36654 13.8837V19.6333C2.36654 19.915 2.25433 20.1852 2.05458 20.3844C1.85483 20.5836 1.58392 20.6955 1.30143 20.6955C1.01895 20.6955 0.748037 20.5836 0.548291 20.3844C0.348544 20.1852 0.236328 19.915 0.236328 19.6333V2.28521C3.57366 -0.263905 6.87549 1.01065 10.1773 2.28521C12.7762 3.28786 15.3736 4.29051 17.9881 3.43231C18.758 3.17263 19.4783 2.78478 20.1183 2.28521V15.0308C16.781 17.5799 13.4792 16.3053 10.1773 15.0308Z" fill="#606060"/>
</svg>
