<svg width="23" height="20" viewBox="0 0 23 20" fill="none" xmlns="http://www.w3.org/2000/svg">
<path d="M0.428711 6.50053L1.85856 4.89641L3.99327 7.30258L6.12798 4.89641L7.55783 6.50053L5.41305 8.8954L7.55783 11.2903L6.12798 12.8944L3.99327 10.4882L1.85856 12.8944L0.428711 11.2903L2.57349 8.8954L0.428711 6.50053ZM14.0626 0.987793C15.1309 0.987793 16.1553 1.46386 16.9107 2.31127C17.666 3.15868 18.0904 4.30801 18.0904 5.50643C18.0904 6.70484 17.666 7.85417 16.9107 8.70158C16.1553 9.54899 15.1309 10.0251 14.0626 10.0251C12.9944 10.0251 11.9699 9.54899 11.2146 8.70158C10.4592 7.85417 10.0349 6.70484 10.0349 5.50643C10.0349 4.30801 10.4592 3.15868 11.2146 2.31127C11.9699 1.46386 12.9944 0.987793 14.0626 0.987793ZM14.0626 3.13414C13.5018 3.13414 12.964 3.38408 12.5674 3.82897C12.1709 4.27386 11.9481 4.87726 11.9481 5.50643C11.9481 6.13559 12.1709 6.73899 12.5674 7.18388C12.964 7.62877 13.5018 7.87871 14.0626 7.87871C14.6235 7.87871 15.1613 7.62877 15.5579 7.18388C15.9544 6.73899 16.1772 6.13559 16.1772 5.50643C16.1772 4.87726 15.9544 4.27386 15.5579 3.82897C15.1613 3.38408 14.6235 3.13414 14.0626 3.13414ZM14.0626 11.1547C16.7512 11.1547 22.1182 12.6572 22.1182 15.6734V19.0623H6.00715V15.6734C6.00715 12.6572 11.3741 11.1547 14.0626 11.1547ZM14.0626 13.3011C11.0418 13.3011 7.92033 14.9504 7.92033 15.6734V16.916H20.205V15.6734C20.205 14.9504 17.0533 13.3011 14.0626 13.3011Z" fill="#606060"/>
</svg>
