<svg width="25" height="22" viewBox="0 0 25 22" fill="none" xmlns="http://www.w3.org/2000/svg">
<path d="M7.23571 8.62767C8.09464 8.536 8.75893 8.6955 8.99643 8.8165C9.10168 8.87477 9.21725 8.91074 9.33629 8.92228C9.45534 8.93382 9.57543 8.92069 9.68944 8.88367C9.80345 8.84665 9.90905 8.7865 9.99999 8.70679C10.0909 8.62707 10.1653 8.52942 10.2188 8.41961C10.2723 8.30981 10.3037 8.1901 10.3113 8.06758C10.3188 7.94507 10.3024 7.82224 10.2628 7.70639C10.2232 7.59054 10.1614 7.48403 10.081 7.39318C10.0006 7.30232 9.90319 7.22898 9.79464 7.1775C9.16786 6.85483 8.1375 6.688 7.05 6.80533C5.33571 6.98867 3.57143 8.51767 3.57143 11.0165C3.57143 13.5557 5.45357 15.2332 7.67857 15.2332C8.71429 15.2332 9.64286 14.7345 10.1732 14.2193C10.6411 13.7647 10.7143 13.1615 10.7143 12.7838V11.0165C10.7143 10.7734 10.6202 10.5402 10.4528 10.3683C10.2853 10.1964 10.0582 10.0998 9.82143 10.0998H8.38036C8.14356 10.0998 7.91645 10.1964 7.74901 10.3683C7.58157 10.5402 7.4875 10.7734 7.4875 11.0165C7.4875 11.2596 7.58157 11.4928 7.74901 11.6647C7.91645 11.8366 8.14356 11.9332 8.38036 11.9332H8.92857V12.7838C8.92854 12.8275 8.92495 12.871 8.91786 12.914C8.57019 13.2152 8.1333 13.3865 7.67857 13.3998C6.37321 13.3998 5.35714 12.474 5.35714 11.0165C5.35714 9.51683 6.36964 8.72117 7.23571 8.62767ZM14.2857 7.71833C14.2857 7.47522 14.1916 7.24206 14.0242 7.07015C13.8568 6.89824 13.6297 6.80167 13.3929 6.80167C13.1561 6.80167 12.929 6.89824 12.7615 7.07015C12.5941 7.24206 12.5 7.47522 12.5 7.71833V14.3183C12.5 14.5615 12.5941 14.7946 12.7615 14.9665C12.929 15.1384 13.1561 15.235 13.3929 15.235C13.6297 15.235 13.8568 15.1384 14.0242 14.9665C14.1916 14.7946 14.2857 14.5615 14.2857 14.3183V7.71833ZM16.9643 6.80167C16.7275 6.80167 16.5004 6.89824 16.3329 7.07015C16.1655 7.24206 16.0714 7.47522 16.0714 7.71833V14.3183C16.0714 14.5615 16.1655 14.7946 16.3329 14.9665C16.5004 15.1384 16.7275 15.235 16.9643 15.235C17.2011 15.235 17.4282 15.1384 17.5956 14.9665C17.7631 14.7946 17.8571 14.5615 17.8571 14.3183V11.9277L19.6482 11.9167C19.885 11.9152 20.1116 11.8172 20.278 11.6443C20.4444 11.4714 20.5371 11.2376 20.5357 10.9945C20.5343 10.7514 20.4389 10.5188 20.2704 10.3479C20.102 10.1771 19.8743 10.0819 19.6375 10.0833L17.8571 10.0943V8.63317H20.5357C20.7725 8.63317 20.9996 8.53659 21.1671 8.36468C21.3345 8.19277 21.4286 7.95962 21.4286 7.7165C21.4286 7.47339 21.3345 7.24023 21.1671 7.06832C20.9996 6.89641 20.7725 6.79983 20.5357 6.79983L16.9643 6.80167ZM4.46429 0C3.28028 0 2.14477 0.482886 1.30756 1.34243C0.470343 2.20197 0 3.36776 0 4.58333V17.4167C0 18.6322 0.470343 19.798 1.30756 20.6576C2.14477 21.5171 3.28028 22 4.46429 22H20.5357C21.7197 22 22.8552 21.5171 23.6924 20.6576C24.5297 19.798 25 18.6322 25 17.4167V4.58333C25 3.36776 24.5297 2.20197 23.6924 1.34243C22.8552 0.482886 21.7197 0 20.5357 0H4.46429ZM1.78571 4.58333C1.78571 3.85399 2.06792 3.15451 2.57025 2.63879C3.07258 2.12306 3.75388 1.83333 4.46429 1.83333H20.5357C21.2461 1.83333 21.9274 2.12306 22.4298 2.63879C22.9321 3.15451 23.2143 3.85399 23.2143 4.58333V17.4167C23.2143 18.146 22.9321 18.8455 22.4298 19.3612C21.9274 19.8769 21.2461 20.1667 20.5357 20.1667H4.46429C3.75388 20.1667 3.07258 19.8769 2.57025 19.3612C2.06792 18.8455 1.78571 18.146 1.78571 17.4167V4.58333Z" fill="#711500"/>
</svg>
