<svg width="22" height="22" viewBox="0 0 22 22" fill="none" xmlns="http://www.w3.org/2000/svg">
<path d="M21 11V3.22222C21 2.63285 20.7659 2.06762 20.3491 1.65087C19.9324 1.23413 19.3671 1 18.7778 1H3.22222C2.63285 1 2.06762 1.23413 1.65087 1.65087C1.23413 2.06762 1 2.63285 1 3.22222V15.4444M21 11V18.7778C21 19.3671 20.7659 19.9324 20.3491 20.3491C19.9324 20.7659 19.3671 21 18.7778 21H15.4444M21 11C13.8422 11 9.77222 13.2056 7.60556 15.7144M1 15.4444V18.7778C1 19.3671 1.23413 19.9324 1.65087 20.3491C2.06762 20.7659 2.63285 21 3.22222 21H15.4444M1 15.4444C2.55889 15.1844 5.04111 15.1189 7.60556 15.7144M15.4444 21C13.5511 17.9244 10.5256 16.3911 7.60556 15.7144M7.11111 5.44444C6.55556 5.44444 5.44444 5.77778 5.44444 7.11111C5.44444 8.44444 6.55556 8.77778 7.11111 8.77778C7.66667 8.77778 8.77778 8.44444 8.77778 7.11111C8.77778 5.77778 7.66667 5.44444 7.11111 5.44444Z" stroke="#711500" stroke-width="2" stroke-linecap="round" stroke-linejoin="round"/>
</svg>
