<svg width="18" height="22" viewBox="0 0 18 22" fill="none" xmlns="http://www.w3.org/2000/svg">
<path d="M1 21.0002H17" stroke="#711500" stroke-width="2" stroke-linecap="round"/>
<path d="M15.3367 7.11127L16.0787 6.37127C16.3709 6.07915 16.6027 5.73233 16.7608 5.35062C16.919 4.96892 17.0004 4.5598 17.0005 4.14663C17.0005 3.73345 16.9192 3.32431 16.7611 2.94257C16.603 2.56083 16.3713 2.21396 16.0792 1.92177C15.7871 1.62958 15.4403 1.39779 15.0585 1.23963C14.6768 1.08147 14.2677 1.00005 13.8545 1C13.4414 0.999954 13.0322 1.08129 12.6505 1.23936C12.2688 1.39743 11.9219 1.62915 11.6297 1.92127L10.8877 2.66327C10.8877 2.66327 10.9807 4.23927 12.3707 5.62927C13.7607 7.01927 15.3367 7.11227 15.3367 7.11227L8.51969 13.9293C8.05769 14.3913 7.82769 14.6213 7.57269 14.8203C7.27269 15.0543 6.94769 15.2553 6.60369 15.4193C6.31269 15.5583 6.00269 15.6613 5.38369 15.8673L2.75769 16.7433M10.8877 2.66227L4.07069 9.48027C3.60869 9.94227 3.37769 10.1723 3.17969 10.4273C2.94541 10.7275 2.74455 11.0525 2.58069 11.3963C2.44169 11.6873 2.33869 11.9973 2.13169 12.6163L1.25669 15.2423M1.25669 15.2423L1.04369 15.8833C0.993765 16.0327 0.986467 16.1931 1.02262 16.3465C1.05877 16.4999 1.13695 16.6402 1.24837 16.7516C1.3598 16.863 1.50007 16.9412 1.65344 16.9773C1.80682 17.0135 1.96723 17.0062 2.11669 16.9563L2.75769 16.7433M1.25669 15.2423L2.75769 16.7433" stroke="#711500" stroke-width="2"/>
</svg>
